Amstelvar-Roman-PWHT-min.ufo
<glyph name="exclam" format="2">
  <advance width="604"/>
  <unicode hex="0021"/>
  <outline>
    <contour>
      <point x="224" y="55" type="qcurve" smooth="yes"/>
      <point x="224" y="87"/>
      <point x="268" y="133"/>
      <point x="302.0" y="133" type="qcurve" smooth="yes"/>
      <point x="336" y="133"/>
      <point x="380" y="87"/>
      <point x="380" y="55" type="qcurve" smooth="yes"/>
      <point x="380" y="24"/>
      <point x="336" y="-22.0"/>
      <point x="302.0" y="-22.0" type="qcurve" smooth="yes"/>
      <point x="268" y="-22.0"/>
      <point x="224" y="24"/>
    </contour>
    <contour>
      <point x="286" y="1421.0" type="line" smooth="yes"/>
      <point x="286" y="1489"/>
      <point x="290" y="1576.0"/>
      <point x="297" y="1577.0" type="qcurve" smooth="yes"/>
      <point x="303" y="1578.0"/>
      <point x="308.0" y="1491.0"/>
      <point x="308" y="1422.0" type="qcurve" smooth="yes"/>
      <point x="307" y="1108.0" type="line"/>
      <point x="331.0" y="800.0" type="line"/>
      <point x="348.0" y="435.0" type="line"/>
      <point x="254.0" y="435.0" type="line"/>
      <point x="271.0" y="800.0" type="line"/>
      <point x="287" y="1108.0" type="line"/>
    </contour>
  </outline>
</glyph>
<glyph name="quotedbl" format="2">
  <advance width="974"/>
  <unicode hex="0022"/>
  <outline>
    <contour>
      <point x="244" y="964" type="line"/>
      <point x="244.0" y="1505" type="line"/>
      <point x="244.0" y="1524"/>
      <point x="267.0" y="1558"/>
      <point x="292.0" y="1558" type="qcurve" smooth="yes"/>
      <point x="317.0" y="1558"/>
      <point x="340.0" y="1524"/>
      <point x="340.0" y="1505" type="qcurve"/>
      <point x="338" y="964" type="line"/>
    </contour>
    <contour>
      <point x="634" y="964" type="line"/>
      <point x="634.0" y="1505" type="line"/>
      <point x="634.0" y="1524"/>
      <point x="657.0" y="1558"/>
      <point x="682.0" y="1558" type="qcurve" smooth="yes"/>
      <point x="707.0" y="1558"/>
      <point x="730.0" y="1524"/>
      <point x="730.0" y="1505" type="qcurve"/>
      <point x="728" y="964" type="line"/>
    </contour>
  </outline>
</glyph>
<glyph name="six" format="2">
  <advance width="871"/>
  <unicode hex="0036"/>
  <outline>
    <contour>
      <point x="74" y="619" type="qcurve" smooth="yes"/>
      <point x="74" y="967"/>
      <point x="418" y="1455"/>
      <point x="739" y="1579" type="qcurve"/>
      <point x="775" y="1481" type="line"/>
      <point x="475" y="1374"/>
      <point x="111" y="976"/>
      <point x="111" y="616" type="qcurve" smooth="yes"/>
      <point x="111" y="358"/>
      <point x="328" y="89"/>
      <point x="492" y="89" type="qcurve" smooth="yes"/>
      <point x="619" y="89"/>
      <point x="783" y="290"/>
      <point x="783" y="457" type="qcurve" smooth="yes"/>
      <point x="783" y="625"/>
      <point x="609" y="793"/>
      <point x="489" y="793" type="qcurve" smooth="yes"/>
      <point x="410" y="793"/>
      <point x="329" y="774"/>
      <point x="295" y="763" type="qcurve"/>
      <point x="254" y="833" type="line"/>
      <point x="285" y="868"/>
      <point x="409" y="926"/>
      <point x="494" y="926" type="qcurve" smooth="yes"/>
      <point x="624" y="926"/>
      <point x="820" y="686"/>
      <point x="820" y="480" type="qcurve" smooth="yes"/>
      <point x="820" y="258"/>
      <point x="628" y="-22"/>
      <point x="475" y="-22" type="qcurve" smooth="yes"/>
      <point x="305" y="-22"/>
      <point x="74" y="337"/>
    </contour>
  </outline>
</glyph>
<glyph name="eight" format="2">
  <advance width="1013"/>
  <unicode hex="0038"/>
  <outline>
    <contour>
      <point x="42.0" y="392.0" type="qcurve" smooth="yes"/>
      <point x="42" y="558"/>
      <point x="269" y="806"/>
      <point x="438" y="861" type="qcurve"/>
      <point x="526" y="808" type="line"/>
      <point x="355" y="752"/>
      <point x="180.0" y="557.0"/>
      <point x="180.0" y="408.0" type="qcurve" smooth="yes"/>
      <point x="180.0" y="270.0"/>
      <point x="374" y="87"/>
      <point x="566" y="87" type="qcurve" smooth="yes"/>
      <point x="743" y="87"/>
      <point x="956" y="234"/>
      <point x="956" y="377" type="qcurve" smooth="yes"/>
      <point x="956" y="538"/>
      <point x="725" y="724"/>
      <point x="541" y="798" type="qcurve" smooth="yes"/>
      <point x="317" y="888"/>
      <point x="142" y="1039"/>
      <point x="142" y="1182" type="qcurve" smooth="yes"/>
      <point x="142" y="1322"/>
      <point x="342" y="1530"/>
      <point x="518" y="1530" type="qcurve" smooth="yes"/>
      <point x="692" y="1530"/>
      <point x="925" y="1350"/>
      <point x="925" y="1217" type="qcurve" smooth="yes"/>
      <point x="925" y="1064"/>
      <point x="757" y="872"/>
      <point x="596" y="793" type="qcurve"/>
      <point x="495" y="846" type="line"/>
      <point x="655" y="911"/>
      <point x="786" y="1078"/>
      <point x="786" y="1188" type="qcurve" smooth="yes"/>
      <point x="786" y="1292"/>
      <point x="628" y="1420"/>
      <point x="499" y="1420" type="qcurve" smooth="yes"/>
      <point x="354" y="1420"/>
      <point x="180" y="1282"/>
      <point x="180" y="1183" type="qcurve" smooth="yes"/>
      <point x="180" y="1049"/>
      <point x="371" y="911"/>
      <point x="573" y="824" type="qcurve" smooth="yes"/>
      <point x="788" y="731"/>
      <point x="991" y="549"/>
      <point x="991" y="373" type="qcurve" smooth="yes"/>
      <point x="991" y="206"/>
      <point x="749" y="-23"/>
      <point x="535" y="-23" type="qcurve"/>
      <point x="298" y="-23"/>
      <point x="42" y="228"/>
    </contour>
  </outline>
</glyph>
<glyph name="P" format="2">
  <advance width="987"/>
  <unicode hex="0050"/>
  <outline>
    <contour>
      <point x="82" y="0" type="line"/>
      <point x="82" y="99" type="line"/>
      <point x="289" y="137" type="line"/>
      <point x="291" y="753" type="line"/>
      <point x="289" y="1352" type="line"/>
      <point x="82" y="1386" type="line"/>
      <point x="82" y="1500" type="line"/>
      <point x="578" y="1500" type="line" smooth="yes"/>
      <point x="741" y="1500"/>
      <point x="937" y="1302"/>
      <point x="937" y="1072" type="qcurve" smooth="yes"/>
      <point x="937" y="846"/>
      <point x="728" y="599"/>
      <point x="564" y="599" type="qcurve" smooth="yes"/>
      <point x="489" y="599"/>
      <point x="358" y="614"/>
      <point x="309" y="631" type="qcurve"/>
      <point x="316" y="724" type="line"/>
      <point x="347" y="718"/>
      <point x="407" y="712"/>
      <point x="530" y="712" type="qcurve" smooth="yes"/>
      <point x="716" y="712"/>
      <point x="884" y="923"/>
      <point x="884" y="1072" type="qcurve" smooth="yes"/>
      <point x="884" y="1209"/>
      <point x="723" y="1382"/>
      <point x="547" y="1382" type="qcurve" smooth="yes"/>
      <point x="377" y="1382" type="line"/>
      <point x="330" y="1346" type="line"/>
      <point x="327" y="754" type="line"/>
      <point x="329" y="131" type="line"/>
      <point x="523" y="103" type="line"/>
      <point x="523" y="0" type="line"/>
    </contour>
  </outline>
</glyph>
<glyph name="Q" format="2">
  <advance width="1328"/>
  <unicode hex="0051"/>
  <outline>
    <contour>
      <point x="50" y="737" type="qcurve" smooth="yes"/>
      <point x="50" y="1089"/>
      <point x="396" y="1520"/>
      <point x="649" y="1520" type="qcurve" smooth="yes"/>
      <point x="906" y="1520"/>
      <point x="1248" y="1117"/>
      <point x="1248" y="752" type="qcurve" smooth="yes"/>
      <point x="1248" y="402"/>
      <point x="904" y="-31"/>
      <point x="653" y="-31" type="qcurve" smooth="yes"/>
      <point x="407" y="-31"/>
      <point x="50" y="376"/>
    </contour>
    <contour>
      <point x="88" y="771" type="qcurve" smooth="yes"/>
      <point x="88" y="500"/>
      <point x="384" y="101"/>
      <point x="651" y="101" type="qcurve" smooth="yes"/>
      <point x="938" y="101"/>
      <point x="1211" y="458"/>
      <point x="1211" y="745" type="qcurve" smooth="yes"/>
      <point x="1211" y="998"/>
      <point x="915" y="1380"/>
      <point x="651" y="1380" type="qcurve" smooth="yes"/>
      <point x="364" y="1380"/>
      <point x="88" y="1032"/>
    </contour>
    <contour>
      <point x="139" y="-288" type="qcurve"/>
      <point x="71" y="-224" type="line"/>
      <point x="128" y="-138"/>
      <point x="287" y="-54"/>
      <point x="374" y="-60" type="qcurve"/>
      <point x="429" y="71" type="line"/>
      <point x="536" y="30" type="line"/>
      <point x="485" y="-89" type="line"/>
      <point x="1064" y="-320" type="line"/>
      <point x="1133" y="-336"/>
      <point x="1285" y="-193"/>
      <point x="1308" y="-132" type="qcurve"/>
      <point x="1398" y="-184" type="line"/>
      <point x="1353" y="-288"/>
      <point x="1212" y="-414"/>
      <point x="1078" y="-392" type="qcurve"/>
      <point x="390" y="-108" type="line"/>
      <point x="329" y="-108"/>
      <point x="180" y="-230"/>
    </contour>
  </outline>
</glyph>
<glyph name="Z" format="2">
  <advance width="1016"/>
  <unicode hex="005A"/>
  <outline>
    <contour>
      <point x="70" y="0" type="line"/>
      <point x="40" y="92" type="line"/>
      <point x="876" y="1366" type="line"/>
      <point x="862" y="1382" type="line"/>
      <point x="258" y="1382" type="line"/>
      <point x="222" y="1058" type="line"/>
      <point x="100" y="1058" type="line"/>
      <point x="100" y="1500" type="line"/>
      <point x="951" y="1500" type="line"/>
      <point x="951" y="1409" type="line"/>
      <point x="107" y="124" type="line"/>
      <point x="121" y="108" type="line"/>
      <point x="810" y="108" type="line"/>
      <point x="886" y="378" type="line"/>
      <point x="996" y="378" type="line"/>
      <point x="956" y="0" type="line"/>
    </contour>
  </outline>
</glyph>
<glyph name="g" format="2">
  <advance width="868"/>
  <unicode hex="0067"/>
  <outline>
    <contour>
      <point x="4" y="-234" type="qcurve" smooth="yes"/>
      <point x="4" y="-149"/>
      <point x="46" y="-8"/>
      <point x="96" y="48" type="qcurve"/>
      <point x="167" y="-3" type="line"/>
      <point x="107" y="-44"/>
      <point x="35" y="-148"/>
      <point x="35" y="-214" type="qcurve" smooth="yes"/>
      <point x="35" y="-300"/>
      <point x="211" y="-413"/>
      <point x="435" y="-413" type="qcurve" smooth="yes"/>
      <point x="583" y="-413"/>
      <point x="765" y="-296"/>
      <point x="765" y="-210" type="qcurve" smooth="yes"/>
      <point x="765" y="-137"/>
      <point x="640" y="-62"/>
      <point x="392" y="-47" type="qcurve" smooth="yes"/>
      <point x="206" y="-35"/>
      <point x="44" y="51"/>
      <point x="44" y="138" type="qcurve" smooth="yes"/>
      <point x="44" y="216"/>
      <point x="105" y="325"/>
      <point x="164" y="356" type="qcurve"/>
      <point x="215" y="289" type="line"/>
      <point x="146" y="256"/>
      <point x="74" y="174"/>
      <point x="74" y="144" type="qcurve" smooth="yes"/>
      <point x="74" y="90"/>
      <point x="220" y="-2"/>
      <point x="419" y="-12" type="qcurve" smooth="yes"/>
      <point x="727" y="-28"/>
      <point x="877" y="-128"/>
      <point x="877" y="-212" type="qcurve" smooth="yes"/>
      <point x="877" y="-337"/>
      <point x="631" y="-518"/>
      <point x="366" y="-518" type="qcurve" smooth="yes"/>
      <point x="164" y="-518"/>
      <point x="4" y="-366"/>
    </contour>
    <contour>
      <point x="85" y="629" type="qcurve" smooth="yes"/>
      <point x="85" y="800"/>
      <point x="234" y="1022"/>
      <point x="355" y="1022" type="qcurve" smooth="yes"/>
      <point x="476" y="1022"/>
      <point x="626" y="816"/>
      <point x="626" y="634" type="qcurve" smooth="yes"/>
      <point x="626" y="463"/>
      <point x="478" y="217"/>
      <point x="358" y="217" type="qcurve" smooth="yes"/>
      <point x="237" y="217"/>
      <point x="85" y="444"/>
    </contour>
    <contour>
      <point x="121" y="639" type="qcurve" smooth="yes"/>
      <point x="121" y="484"/>
      <point x="250" y="319"/>
      <point x="355" y="319" type="qcurve" smooth="yes"/>
      <point x="468" y="319"/>
      <point x="590" y="471"/>
      <point x="590" y="628" type="qcurve" smooth="yes"/>
      <point x="590" y="757"/>
      <point x="462" y="908"/>
      <point x="357" y="908" type="qcurve" smooth="yes"/>
      <point x="245" y="908"/>
      <point x="121" y="773"/>
    </contour>
    <contour>
      <point x="465" y="925" type="line"/>
      <point x="450" y="1000" type="line"/>
      <point x="763" y="1000" type="line"/>
      <point x="763" y="865" type="line"/>
    </contour>
  </outline>
</glyph>
<glyph name="h" format="2">
  <advance width="998"/>
  <unicode hex="0068"/>
  <outline>
    <contour>
      <point x="76" y="0" type="line"/>
      <point x="76" y="80" type="line"/>
      <point x="218" y="115" type="line"/>
      <point x="220" y="527" type="line"/>
      <point x="218" y="1376" type="line"/>
      <point x="52" y="1406" type="line"/>
      <point x="52" y="1500" type="line"/>
      <point x="198" y="1534" type="line"/>
      <point x="230" y="1534" type="line"/>
      <point x="258" y="1502" type="line"/>
      <point x="257" y="853" type="line"/>
      <point x="301" y="928"/>
      <point x="452" y="1022"/>
      <point x="533" y="1022" type="qcurve" smooth="yes"/>
      <point x="656" y="1022"/>
      <point x="779" y="873"/>
      <point x="779" y="743" type="qcurve" smooth="yes"/>
      <point x="779" y="669"/>
      <point x="779" y="527"/>
      <point x="779" y="527" type="qcurve"/>
      <point x="784" y="115" type="line"/>
      <point x="932" y="80" type="line"/>
      <point x="932" y="0" type="line"/>
      <point x="586" y="0" type="line"/>
      <point x="586" y="80" type="line"/>
      <point x="744" y="115" type="line"/>
      <point x="746" y="527" type="line"/>
      <point x="746" y="703" type="line" smooth="yes"/>
      <point x="746" y="769"/>
      <point x="644" y="878"/>
      <point x="549" y="878" type="qcurve" smooth="yes"/>
      <point x="470" y="878"/>
      <point x="308" y="802"/>
      <point x="256" y="725" type="qcurve"/>
      <point x="256" y="527" type="line"/>
      <point x="258" y="115" type="line"/>
      <point x="396" y="80" type="line"/>
      <point x="396" y="0" type="line"/>
    </contour>
  </outline>
</glyph>
<glyph name="w" format="2">
  <advance width="1341"/>
  <unicode hex="0077"/>
  <outline>
    <contour>
      <point x="-10" y="908" type="line"/>
      <point x="-10" y="998" type="line"/>
      <point x="282" y="1000" type="line"/>
      <point x="282" y="910" type="line"/>
      <point x="149" y="873" type="line"/>
      <point x="278" y="494" type="line"/>
      <point x="394" y="180" type="line"/>
      <point x="502" y="474" type="line"/>
      <point x="601" y="775" type="line"/>
      <point x="663" y="627" type="line"/>
      <point x="585" y="415" type="line"/>
      <point x="430" y="-8" type="line"/>
      <point x="412" y="-8" type="line"/>
      <point x="244" y="481" type="line"/>
      <point x="108" y="873" type="line"/>
    </contour>
    <contour>
      <point x="435" y="910" type="line"/>
      <point x="435" y="1000" type="line"/>
      <point x="752" y="1000" type="line"/>
      <point x="752" y="910" type="line"/>
      <point x="589" y="873" type="line"/>
      <point x="732" y="496" type="line"/>
      <point x="855" y="182" type="line"/>
      <point x="984" y="531" type="line"/>
      <point x="1103" y="880" type="line"/>
      <point x="966" y="910" type="line"/>
      <point x="966" y="1000" type="line"/>
      <point x="1371" y="1000" type="line"/>
      <point x="1371" y="910" type="line"/>
      <point x="1223" y="875" type="line"/>
      <point x="1073" y="489" type="line"/>
      <point x="897" y="-8" type="line"/>
      <point x="879" y="-8" type="line"/>
      <point x="703" y="483" type="line"/>
      <point x="553" y="875" type="line"/>
    </contour>
  </outline>
</glyph>
<glyph name="exclamdown" format="2">
  <advance width="604"/>
  <unicode hex="00A1"/>
  <outline>
    <contour>
      <point x="380" y="1271" type="qcurve" smooth="yes"/>
      <point x="380" y="1239"/>
      <point x="336" y="1193"/>
      <point x="302.0" y="1193" type="qcurve" smooth="yes"/>
      <point x="268" y="1193"/>
      <point x="224" y="1239"/>
      <point x="224" y="1271" type="qcurve" smooth="yes"/>
      <point x="224" y="1302"/>
      <point x="268" y="1348.0"/>
      <point x="302.0" y="1348.0" type="qcurve" smooth="yes"/>
      <point x="336" y="1348.0"/>
      <point x="380" y="1302"/>
    </contour>
    <contour>
      <point x="318.0" y="-95.0" type="line" smooth="yes"/>
      <point x="318.0" y="-163.0"/>
      <point x="314.0" y="-250.0"/>
      <point x="307.0" y="-251.0" type="qcurve" smooth="yes"/>
      <point x="301.0" y="-252.0"/>
      <point x="296.0" y="-165.0"/>
      <point x="296.0" y="-96.0" type="qcurve" smooth="yes"/>
      <point x="297.0" y="218.0" type="line"/>
      <point x="273.0" y="526.0" type="line"/>
      <point x="256.0" y="891.0" type="line"/>
      <point x="350.0" y="891.0" type="line"/>
      <point x="333.0" y="526.0" type="line"/>
      <point x="317.0" y="218.0" type="line"/>
    </contour>
  </outline>
</glyph>
<glyph name="copyright" format="2">
  <advance width="1790"/>
  <unicode hex="00A9"/>
  <outline>
    <contour>
      <point x="501" y="662" type="qcurve" smooth="yes"/>
      <point x="501" y="901"/>
      <point x="709" y="1210"/>
      <point x="888" y="1210" type="qcurve" smooth="yes"/>
      <point x="938" y="1210"/>
      <point x="1034" y="1177"/>
      <point x="1058" y="1153" type="qcurve"/>
      <point x="1090" y="1206" type="line"/>
      <point x="1178" y="1177" type="line"/>
      <point x="1194" y="851" type="line"/>
      <point x="1096" y="834" type="line"/>
      <point x="1047" y="1019" type="line"/>
      <point x="1005" y="1053"/>
      <point x="902" y="1098"/>
      <point x="845" y="1098" type="qcurve" smooth="yes"/>
      <point x="706" y="1098"/>
      <point x="537" y="898"/>
      <point x="537" y="704" type="qcurve" smooth="yes"/>
      <point x="537" y="502"/>
      <point x="737" y="295"/>
      <point x="868" y="295" type="qcurve" smooth="yes"/>
      <point x="987" y="295"/>
      <point x="1170" y="398"/>
      <point x="1218" y="455" type="qcurve"/>
      <point x="1278" y="380" type="line"/>
      <point x="1216" y="287"/>
      <point x="994" y="165"/>
      <point x="907" y="165" type="qcurve" smooth="yes"/>
      <point x="724" y="165"/>
      <point x="501" y="433"/>
    </contour>
    <contour>
      <point x="101" y="685" type="qcurve" smooth="yes"/>
      <point x="101" y="1061"/>
      <point x="549" y="1570"/>
      <point x="896" y="1570" type="qcurve" smooth="yes"/>
      <point x="1242" y="1570"/>
      <point x="1689" y="1087"/>
      <point x="1689" y="706" type="qcurve" smooth="yes"/>
      <point x="1689" y="288"/>
      <point x="1248" y="-242"/>
      <point x="906" y="-242" type="qcurve" smooth="yes"/>
      <point x="555" y="-242"/>
      <point x="101" y="276"/>
    </contour>
    <contour>
      <point x="137" y="681" type="qcurve" smooth="yes"/>
      <point x="137" y="335"/>
      <point x="594" y="-118"/>
      <point x="925" y="-118" type="qcurve" smooth="yes"/>
      <point x="1246" y="-118"/>
      <point x="1653" y="360"/>
      <point x="1653" y="698" type="qcurve" smooth="yes"/>
      <point x="1653" y="1007"/>
      <point x="1223" y="1446"/>
      <point x="877" y="1446" type="qcurve" smooth="yes"/>
      <point x="549" y="1446"/>
      <point x="137" y="998"/>
    </contour>
  </outline>
</glyph>
<glyph name="guillemetleft" format="2">
  <advance width="1295"/>
  <unicode hex="00AB"/>
  <outline>
    <contour>
      <point x="25" y="625" type="line"/>
      <point x="25" y="625"/>
      <point x="561" y="978"/>
      <point x="628" y="1024" type="qcurve" smooth="yes"/>
      <point x="697" y="1070"/>
      <point x="780" y="965"/>
      <point x="711" y="929" type="qcurve" smooth="yes"/>
      <point x="557" y="848"/>
      <point x="53" y="608"/>
      <point x="53" y="608" type="qcurve"/>
      <point x="53" y="608"/>
      <point x="614" y="330"/>
      <point x="715" y="280" type="qcurve" smooth="yes"/>
      <point x="784" y="246"/>
      <point x="720" y="136"/>
      <point x="647" y="174" type="qcurve" smooth="yes"/>
      <point x="581" y="208"/>
      <point x="100" y="536"/>
      <point x="26" y="584" type="qcurve"/>
    </contour>
    <contour>
      <point x="525" y="614" type="line"/>
      <point x="525" y="614"/>
      <point x="1061" y="979"/>
      <point x="1128" y="1025" type="qcurve" smooth="yes"/>
      <point x="1197" y="1070"/>
      <point x="1281" y="965"/>
      <point x="1211" y="929" type="qcurve" smooth="yes"/>
      <point x="1060" y="851"/>
      <point x="563" y="608"/>
      <point x="563" y="608" type="qcurve"/>
      <point x="563" y="608"/>
      <point x="1115" y="331"/>
      <point x="1215" y="281" type="qcurve" smooth="yes"/>
      <point x="1284" y="246"/>
      <point x="1221" y="136"/>
      <point x="1147" y="174" type="qcurve" smooth="yes"/>
      <point x="1081" y="208"/>
      <point x="600" y="546"/>
      <point x="525" y="594" type="qcurve"/>
    </contour>
  </outline>
</glyph>
<glyph name="twosuperior" format="2">
  <advance width="682"/>
  <unicode hex="00B2"/>
  <outline>
    <contour>
      <point x="79" y="671" type="line"/>
      <point x="77" y="777" type="line"/>
      <point x="87" y="859"/>
      <point x="206" y="1004"/>
      <point x="315" y="1064" type="qcurve" smooth="yes"/>
      <point x="463" y="1146"/>
      <point x="529" y="1233"/>
      <point x="529" y="1293" type="qcurve" smooth="yes"/>
      <point x="529" y="1353"/>
      <point x="443" y="1409"/>
      <point x="368" y="1409" type="qcurve" smooth="yes"/>
      <point x="289" y="1409"/>
      <point x="188" y="1358"/>
      <point x="145" y="1315" type="qcurve"/>
      <point x="72" y="1398" type="line"/>
      <point x="109" y="1439"/>
      <point x="256" y="1520"/>
      <point x="348" y="1520" type="qcurve" smooth="yes"/>
      <point x="445" y="1520"/>
      <point x="564" y="1419"/>
      <point x="564" y="1323" type="qcurve" smooth="yes"/>
      <point x="564" y="1220"/>
      <point x="463" y="1111"/>
      <point x="332" y="1036" type="qcurve" smooth="yes"/>
      <point x="222" y="973"/>
      <point x="116" y="850"/>
      <point x="113" y="806" type="qcurve"/>
      <point x="113" y="800" type="line"/>
      <point x="606" y="800" type="line"/>
      <point x="606" y="671" type="line"/>
    </contour>
  </outline>
</glyph>
<glyph name="onesuperior" format="2">
  <advance width="598"/>
  <unicode hex="00B9"/>
  <outline>
    <contour>
      <point x="114" y="670" type="line"/>
      <point x="114" y="754" type="line"/>
      <point x="294" y="784" type="line"/>
      <point x="297" y="1109" type="line"/>
      <point x="294" y="1362" type="line"/>
      <point x="112" y="1386" type="line"/>
      <point x="112" y="1480" type="line"/>
      <point x="307" y="1513" type="line"/>
      <point x="339" y="1478" type="line"/>
      <point x="333" y="1109" type="line"/>
      <point x="335" y="784" type="line"/>
      <point x="516" y="754" type="line"/>
      <point x="516" y="670" type="line"/>
    </contour>
  </outline>
</glyph>
<glyph name="questiondown" format="2">
  <advance width="635"/>
  <unicode hex="00BF"/>
  <outline>
    <contour>
      <point x="465" y="1271" type="qcurve" smooth="yes"/>
      <point x="465" y="1239"/>
      <point x="421" y="1193"/>
      <point x="387.0" y="1193" type="qcurve" smooth="yes"/>
      <point x="353" y="1193"/>
      <point x="309" y="1239"/>
      <point x="309" y="1271" type="qcurve" smooth="yes"/>
      <point x="309" y="1302"/>
      <point x="353" y="1348.0"/>
      <point x="387.0" y="1348.0" type="qcurve" smooth="yes"/>
      <point x="421" y="1348.0"/>
      <point x="465" y="1302"/>
    </contour>
    <contour>
      <point x="602" y="92" type="qcurve" smooth="yes"/>
      <point x="602" y="-67"/>
      <point x="422" y="-214"/>
      <point x="309" y="-214" type="qcurve" smooth="yes"/>
      <point x="190" y="-214"/>
      <point x="20" y="-22"/>
      <point x="20" y="163" type="qcurve" smooth="yes"/>
      <point x="20" y="356"/>
      <point x="183" y="555"/>
      <point x="241" y="589" type="qcurve" smooth="yes"/>
      <point x="294" y="619"/>
      <point x="350" y="721"/>
      <point x="350" y="804" type="qcurve" smooth="yes"/>
      <point x="350" y="891" type="line"/>
      <point x="450" y="891" type="line"/>
      <point x="465" y="807" type="line" smooth="yes"/>
      <point x="478" y="732"/>
      <point x="379" y="570"/>
      <point x="267" y="506" type="qcurve" smooth="yes"/>
      <point x="177" y="454"/>
      <point x="36" y="326"/>
      <point x="36" y="185" type="qcurve" smooth="yes"/>
      <point x="36" y="50"/>
      <point x="195" y="-103"/>
      <point x="325" y="-103" type="qcurve" smooth="yes"/>
      <point x="447" y="-103"/>
      <point x="585" y="14"/>
      <point x="585" y="67" type="qcurve" smooth="yes"/>
      <point x="585" y="96"/>
      <point x="587" y="122"/>
      <point x="586" y="171" type="qcurve" smooth="yes"/>
      <point x="585" y="211"/>
      <point x="581" y="275"/>
      <point x="595" y="275" type="qcurve" smooth="yes"/>
      <point x="600" y="275"/>
      <point x="602" y="182"/>
    </contour>
  </outline>
</glyph>
<glyph name="eth" format="2">
  <advance width="889"/>
  <unicode hex="00F0"/>
  <outline>
    <contour>
      <point x="64" y="490" type="qcurve" smooth="yes"/>
      <point x="64" y="707"/>
      <point x="272" y="1004"/>
      <point x="441" y="1004" type="qcurve" smooth="yes"/>
      <point x="610" y="1004"/>
      <point x="794" y="721"/>
      <point x="806" y="496" type="qcurve"/>
      <point x="782" y="496" type="line"/>
      <point x="782" y="670"/>
      <point x="591" y="888"/>
      <point x="439" y="888" type="qcurve" smooth="yes"/>
      <point x="275" y="888"/>
      <point x="100" y="690"/>
      <point x="101" y="510" type="qcurve" smooth="yes"/>
      <point x="102" y="329"/>
      <point x="286" y="87"/>
      <point x="437" y="88" type="qcurve" smooth="yes"/>
      <point x="610" y="89"/>
      <point x="788" y="363"/>
      <point x="788" y="621" type="qcurve" smooth="yes"/>
      <point x="788" y="981"/>
      <point x="433" y="1387"/>
      <point x="135" y="1486" type="qcurve"/>
      <point x="171" y="1584" type="line"/>
      <point x="487" y="1492"/>
      <point x="828" y="1005"/>
      <point x="828" y="624" type="qcurve" smooth="yes"/>
      <point x="828" y="342"/>
      <point x="627" y="-22"/>
      <point x="445" y="-22" type="qcurve" smooth="yes"/>
      <point x="276" y="-22"/>
      <point x="64" y="257"/>
    </contour>
    <contour>
      <point x="289" y="1214" type="line"/>
      <point x="695" y="1492" type="line"/>
      <point x="762" y="1403" type="line"/>
      <point x="356" y="1125" type="line"/>
    </contour>
  </outline>
</glyph>
<glyph name="florin" format="2">
  <advance width="637"/>
  <unicode hex="0192"/>
  <outline>
    <contour>
      <point x="343" y="-75" type="line" smooth="yes"/>
      <point x="345" y="-174"/>
      <point x="242" y="-309"/>
      <point x="172" y="-309" type="qcurve" smooth="yes"/>
      <point x="139" y="-309"/>
      <point x="63" y="-302"/>
      <point x="34" y="-295" type="qcurve" smooth="yes"/>
      <point x="13" y="-290" type="line"/>
      <point x="29" y="-183" type="line"/>
      <point x="53" y="-190" type="line" smooth="yes"/>
      <point x="61" y="-192"/>
      <point x="112" y="-197"/>
      <point x="150" y="-197" type="qcurve" smooth="yes"/>
      <point x="211" y="-197"/>
      <point x="311" y="-113"/>
      <point x="309" y="-40" type="qcurve" smooth="yes"/>
      <point x="290" y="870" type="line"/>
      <point x="87" y="872" type="line"/>
      <point x="77" y="966" type="line"/>
      <point x="282" y="984" type="line"/>
      <point x="276" y="1304" type="line" smooth="yes"/>
      <point x="274" y="1403"/>
      <point x="380" y="1518"/>
      <point x="449" y="1518" type="qcurve" smooth="yes"/>
      <point x="482" y="1518"/>
      <point x="558" y="1509"/>
      <point x="587" y="1504" type="qcurve" smooth="yes"/>
      <point x="608" y="1499" type="line"/>
      <point x="592" y="1392" type="line"/>
      <point x="568" y="1399" type="line" smooth="yes"/>
      <point x="560" y="1401"/>
      <point x="529" y="1405"/>
      <point x="485" y="1406" type="qcurve" smooth="yes"/>
      <point x="424" y="1407"/>
      <point x="309" y="1316"/>
      <point x="312" y="1243" type="qcurve" smooth="yes"/>
      <point x="324" y="985" type="line"/>
      <point x="541" y="985" type="line"/>
      <point x="541" y="883" type="line"/>
      <point x="324" y="872" type="line"/>
    </contour>
  </outline>
</glyph>
<glyph name="quoteleft" format="2">
  <advance width="600"/>
  <unicode hex="2018"/>
  <outline>
    <contour>
      <point x="479" y="1503" type="line"/>
      <point x="443" y="1475"/>
      <point x="344" y="1373"/>
      <point x="327" y="1309" type="qcurve" smooth="yes"/>
      <point x="317" y="1271"/>
      <point x="310" y="1217"/>
      <point x="310" y="1162" type="qcurve" smooth="yes"/>
      <point x="310" y="1108"/>
      <point x="295" y="1037"/>
      <point x="256" y="1037.0" type="qcurve" smooth="yes"/>
      <point x="223" y="1037"/>
      <point x="195" y="1100"/>
      <point x="195" y="1172" type="qcurve" smooth="yes"/>
      <point x="195" y="1286"/>
      <point x="340" y="1501"/>
      <point x="432" y="1556" type="qcurve"/>
    </contour>
  </outline>
</glyph>
<glyph name="quotedblbase" format="2">
  <advance width="1030"/>
  <unicode hex="201E"/>
  <outline>
    <contour>
      <point x="133" y="-223" type="line"/>
      <point x="172" y="-196"/>
      <point x="282" y="-92"/>
      <point x="301" y="-27" type="qcurve" smooth="yes"/>
      <point x="312" y="11"/>
      <point x="319" y="55"/>
      <point x="319" y="111" type="qcurve" smooth="yes"/>
      <point x="319" y="166"/>
      <point x="336" y="227"/>
      <point x="372" y="227" type="qcurve" smooth="yes"/>
      <point x="416" y="227"/>
      <point x="447" y="164"/>
      <point x="447" y="91" type="qcurve" smooth="yes"/>
      <point x="447" y="-24"/>
      <point x="286" y="-221"/>
      <point x="185" y="-277.0" type="qcurve"/>
    </contour>
    <contour>
      <point x="570" y="-223" type="line"/>
      <point x="609" y="-196"/>
      <point x="719" y="-92"/>
      <point x="738" y="-27" type="qcurve" smooth="yes"/>
      <point x="749" y="11"/>
      <point x="756" y="55"/>
      <point x="756" y="111" type="qcurve" smooth="yes"/>
      <point x="756" y="166"/>
      <point x="773" y="227"/>
      <point x="809" y="227" type="qcurve" smooth="yes"/>
      <point x="853" y="227"/>
      <point x="884" y="164"/>
      <point x="884" y="91" type="qcurve" smooth="yes"/>
      <point x="884" y="-24"/>
      <point x="723" y="-221"/>
      <point x="622" y="-277.0" type="qcurve"/>
    </contour>
  </outline>
</glyph>
<glyph name="bullet" format="2">
  <advance width="784"/>
  <unicode hex="2022"/>
  <outline>
    <contour>
      <point x="236" y="893" type="qcurve" smooth="yes"/>
      <point x="236" y="956"/>
      <point x="324" y="1049"/>
      <point x="392.0" y="1049" type="qcurve" smooth="yes"/>
      <point x="460" y="1049"/>
      <point x="548" y="956"/>
      <point x="548" y="893" type="qcurve" smooth="yes"/>
      <point x="548" y="832"/>
      <point x="460" y="739"/>
      <point x="392.0" y="739" type="qcurve" smooth="yes"/>
      <point x="324" y="739"/>
      <point x="236" y="832"/>
    </contour>
  </outline>
</glyph>
<glyph name="guarani" format="2">
  <advance width="1199"/>
  <unicode hex="20B2"/>
  <outline>
    <contour>
      <point x="80" y="730" type="qcurve" smooth="yes"/>
      <point x="80" y="1065"/>
      <point x="436" y="1520"/>
      <point x="695" y="1520" type="qcurve" smooth="yes"/>
      <point x="793" y="1520"/>
      <point x="926" y="1475"/>
      <point x="972" y="1437" type="qcurve"/>
      <point x="993" y="1487" type="line"/>
      <point x="1097" y="1487" type="line"/>
      <point x="1130" y="1058" type="line"/>
      <point x="1014" y="1041" type="line"/>
      <point x="976" y="1193" type="line" smooth="yes"/>
      <point x="951" y="1292"/>
      <point x="747" y="1384"/>
      <point x="632" y="1384" type="qcurve" smooth="yes"/>
      <point x="379" y="1384"/>
      <point x="115" y="1041"/>
      <point x="117" y="768" type="qcurve" smooth="yes"/>
      <point x="119" y="475"/>
      <point x="446" y="112"/>
      <point x="638" y="112" type="qcurve" smooth="yes"/>
      <point x="801" y="112"/>
      <point x="1064" y="219"/>
      <point x="1064" y="353" type="qcurve" smooth="yes"/>
      <point x="1064" y="398" type="line" smooth="yes"/>
      <point x="1064" y="470"/>
      <point x="967" y="549"/>
      <point x="822" y="563" type="qcurve"/>
      <point x="845" y="668" type="line"/>
      <point x="1176" y="668" type="line"/>
      <point x="1196" y="568" type="line"/>
      <point x="1075" y="523" type="line"/>
      <point x="1125" y="229" type="line"/>
      <point x="1070" y="133"/>
      <point x="792" y="-13"/>
      <point x="670" y="-13" type="qcurve" smooth="yes"/>
      <point x="433" y="-13"/>
      <point x="80" y="394"/>
    </contour>
    <contour>
      <point x="288" y="-122" type="line"/>
      <point x="358" y="131" type="line"/>
      <point x="376" y="126" type="line"/>
      <point x="569" y="871" type="line"/>
      <point x="677" y="803" type="line"/>
      <point x="484" y="54" type="line"/>
      <point x="504" y="50" type="line"/>
      <point x="461" y="-109" type="line"/>
    </contour>
    <contour>
      <point x="740" y="1618" type="line"/>
      <point x="911" y="1618" type="line"/>
      <point x="858" y="1424" type="line"/>
      <point x="837" y="1428" type="line"/>
      <point x="677" y="803" type="line"/>
      <point x="569" y="871" type="line"/>
      <point x="717" y="1455" type="line"/>
      <point x="697" y="1460" type="line"/>
    </contour>
  </outline>
</glyph>
<glyph name="rupeeIndian" format="2">
  <advance width="980"/>
  <unicode hex="20B9"/>
  <outline>
    <contour>
      <point x="-37" y="1514" type="line"/>
      <point x="566" y="1495" type="line"/>
      <point x="1022" y="1517" type="line"/>
      <point x="982" y="1365" type="line"/>
      <point x="581" y="1368" type="line"/>
      <point x="626" y="1342"/>
      <point x="681" y="1220"/>
      <point x="681" y="1149" type="qcurve" smooth="yes"/>
      <point x="681" y="994"/>
      <point x="523" y="771"/>
      <point x="344" y="731" type="qcurve"/>
      <point x="467" y="691"/>
      <point x="617" y="433"/>
      <point x="662" y="335" type="qcurve" smooth="yes"/>
      <point x="731" y="184"/>
      <point x="882" y="114"/>
      <point x="984" y="120" type="qcurve"/>
      <point x="984" y="20" type="line"/>
      <point x="913" y="-6" type="line"/>
      <point x="806" y="1"/>
      <point x="710" y="116"/>
      <point x="647" y="274" type="qcurve" smooth="yes"/>
      <point x="577" y="450"/>
      <point x="416" y="681"/>
      <point x="276" y="725" type="qcurve"/>
      <point x="105" y="712" type="line"/>
      <point x="78" y="845" type="line"/>
      <point x="344" y="845" type="line" smooth="yes"/>
      <point x="500" y="845"/>
      <point x="642" y="1005"/>
      <point x="642" y="1123" type="qcurve" smooth="yes"/>
      <point x="642" y="1227"/>
      <point x="549" y="1358"/>
      <point x="477" y="1374" type="qcurve"/>
      <point x="2" y="1372" type="line"/>
    </contour>
    <contour>
      <point x="680" y="1165" type="line"/>
      <point x="680" y="1165" type="line"/>
      <point x="931" y="1175" type="line"/>
      <point x="891" y="1034" type="line"/>
      <point x="650" y="1034" type="line"/>
      <point x="650" y="1034" type="line"/>
      <point x="22" y="1035" type="line"/>
      <point x="-17" y="1174" type="line"/>
    </contour>
  </outline>
</glyph>
<glyph name="manat" format="2">
  <advance width="1294"/>
  <unicode hex="20BC"/>
  <outline>
    <contour>
      <point x="1278" y="114" type="line"/>
      <point x="1278" y="0" type="line"/>
      <point x="892" y="0" type="line"/>
      <point x="892" y="114" type="line"/>
      <point x="1069" y="148" type="line"/>
      <point x="1074" y="506" type="line"/>
      <point x="1070" y="926" type="line" smooth="yes"/>
      <point x="1068" y="1118"/>
      <point x="873" y="1306"/>
      <point x="694" y="1307" type="qcurve"/>
      <point x="533" y="1306"/>
      <point x="332" y="1103"/>
      <point x="330" y="906" type="qcurve" smooth="yes"/>
      <point x="328" y="506" type="line"/>
      <point x="330" y="148" type="line"/>
      <point x="518" y="114" type="line"/>
      <point x="518" y="0" type="line"/>
      <point x="12" y="0" type="line"/>
      <point x="12" y="114" type="line"/>
      <point x="190" y="148" type="line"/>
      <point x="192" y="506" type="line"/>
      <point x="189" y="907" type="line" smooth="yes"/>
      <point x="187" y="1167"/>
      <point x="433" y="1431"/>
      <point x="641" y="1431" type="qcurve" smooth="yes"/>
      <point x="864" y="1431"/>
      <point x="1113" y="1158"/>
      <point x="1111" y="919" type="qcurve" smooth="yes"/>
      <point x="1108" y="506" type="line"/>
      <point x="1110" y="148" type="line"/>
    </contour>
    <contour>
      <point x="586" y="260" type="line"/>
      <point x="603" y="662" type="line"/>
      <point x="605" y="1350" type="line"/>
      <point x="576" y="1530" type="line"/>
      <point x="766" y="1600" type="line"/>
      <point x="738" y="1350" type="line"/>
      <point x="742" y="762" type="line"/>
      <point x="766" y="330" type="line"/>
    </contour>
  </outline>
</glyph>
<glyph name="ruble" format="2">
  <advance width="899"/>
  <unicode hex="20BD"/>
  <outline>
    <contour>
      <point x="82" y="0" type="line"/>
      <point x="82" y="100" type="line"/>
      <point x="270" y="132" type="line"/>
      <point x="272" y="754" type="line"/>
      <point x="270" y="1352" type="line"/>
      <point x="82" y="1386" type="line"/>
      <point x="82" y="1500" type="line"/>
      <point x="389" y="1500" type="line" smooth="yes"/>
      <point x="628" y="1500"/>
      <point x="888" y="1284"/>
      <point x="888" y="1088" type="qcurve" smooth="yes"/>
      <point x="888" y="886"/>
      <point x="627" y="598"/>
      <point x="458" y="598" type="qcurve" smooth="yes"/>
      <point x="353" y="598"/>
      <point x="188" y="620"/>
      <point x="130" y="634" type="qcurve"/>
      <point x="139" y="750" type="line"/>
      <point x="194" y="737"/>
      <point x="371" y="720"/>
      <point x="470" y="720" type="qcurve" smooth="yes"/>
      <point x="655" y="720"/>
      <point x="842" y="910"/>
      <point x="842" y="1070" type="qcurve" smooth="yes"/>
      <point x="842" y="1227"/>
      <point x="653" y="1382"/>
      <point x="493" y="1382" type="qcurve" smooth="yes"/>
      <point x="345" y="1382" type="line"/>
      <point x="311" y="1360" type="line"/>
      <point x="308" y="764" type="line"/>
      <point x="310" y="127" type="line"/>
      <point x="518" y="100" type="line"/>
      <point x="518" y="0" type="line"/>
    </contour>
    <contour>
      <point x="86" y="349" type="line"/>
      <point x="66" y="445" type="line"/>
      <point x="700" y="445" type="line"/>
      <point x="669" y="309" type="line"/>
    </contour>
  </outline>
</glyph>
<glyph name="rightanglebracket" format="2">
  <advance width="860"/>
  <unicode hex="27E9"/>
  <outline>
    <contour>
      <point x="23" y="-177" type="line"/>
      <point x="0" y="-149" type="line"/>
      <point x="795" y="629" type="line"/>
      <point x="15" y="1493" type="line"/>
      <point x="37" y="1518" type="line"/>
      <point x="836" y="655" type="line"/>
      <point x="836" y="604" type="line"/>
    </contour>
  </outline>
</glyph>
<glyph name="f_f_l" format="2">
  <advance width="1507"/>
  <unicode hex="FB04"/>
  <outline>
    <contour>
      <point x="54.0" y="0.0" type="line"/>
      <point x="54.0" y="80.0" type="line"/>
      <point x="222.0" y="115.0" type="line"/>
      <point x="224.0" y="527.0" type="line"/>
      <point x="221.0" y="860.0" type="line"/>
      <point x="68.0" y="872.0" type="line"/>
      <point x="58.0" y="966.0" type="line"/>
      <point x="223.0" y="984.0" type="line"/>
      <point x="221.0" y="1192.0" type="line" smooth="yes"/>
      <point x="220.0" y="1327.0"/>
      <point x="329.0" y="1482.0"/>
      <point x="400.0" y="1482.0" type="qcurve" smooth="yes"/>
      <point x="423.0" y="1482.0"/>
      <point x="495.0" y="1466.0"/>
      <point x="517.0" y="1461.0" type="qcurve" smooth="yes"/>
      <point x="539.0" y="1456.0" type="line"/>
      <point x="523.0" y="1349.0" type="line"/>
      <point x="499.0" y="1356.0" type="line" smooth="yes"/>
      <point x="485.0" y="1360.0"/>
      <point x="433.0" y="1370.0"/>
      <point x="417.0" y="1370.0" type="qcurve" smooth="yes"/>
      <point x="343.0" y="1370.0"/>
      <point x="254.0" y="1278.0"/>
      <point x="256.0" y="1157.0" type="qcurve" smooth="yes"/>
      <point x="258.0" y="985.0" type="line"/>
      <point x="727.0" y="985.0" type="line"/>
      <point x="722.0" y="1304.0" type="line" smooth="yes"/>
      <point x="721.0" y="1399.0"/>
      <point x="813.0" y="1518.0"/>
      <point x="881.0" y="1518.0" type="qcurve" smooth="yes"/>
      <point x="904.0" y="1518.0"/>
      <point x="954.0" y="1509.0"/>
      <point x="975.0" y="1504.0" type="qcurve" smooth="yes"/>
      <point x="1047.0" y="1488.0" type="line"/>
      <point x="1223.0" y="1534.0" type="line"/>
      <point x="1260.0" y="1532.0" type="line"/>
      <point x="1283.0" y="1501.0" type="line"/>
      <point x="1281.0" y="527.0" type="line"/>
      <point x="1283.0" y="115.0" type="line"/>
      <point x="1441.0" y="80.0" type="line"/>
      <point x="1441.0" y="0.0" type="line"/>
      <point x="1101.0" y="0.0" type="line"/>
      <point x="1101.0" y="80.0" type="line"/>
      <point x="1243.0" y="115.0" type="line"/>
      <point x="1245.0" y="527.0" type="line"/>
      <point x="1243.0" y="1376.0" type="line"/>
      <point x="956.0" y="1403.0" type="line" smooth="yes"/>
      <point x="940.0" y="1405.0"/>
      <point x="917.0" y="1406.0"/>
      <point x="901.0" y="1406.0" type="qcurve" smooth="yes"/>
      <point x="832.0" y="1406.0"/>
      <point x="759.0" y="1342.0"/>
      <point x="760.0" y="1269.0" type="qcurve" smooth="yes"/>
      <point x="762.0" y="985.0" type="line"/>
      <point x="1048.0" y="985.0" type="line"/>
      <point x="1048.0" y="883.0" type="line"/>
      <point x="762.0" y="872.0" type="line"/>
      <point x="764.0" y="527.0" type="line"/>
      <point x="778.0" y="115.0" type="line"/>
      <point x="950.0" y="80.0" type="line"/>
      <point x="950.0" y="0.0" type="line"/>
      <point x="588.0" y="0.0" type="line"/>
      <point x="588.0" y="80.0" type="line"/>
      <point x="726.0" y="115.0" type="line"/>
      <point x="728.0" y="527.0" type="line"/>
      <point x="725.0" y="846.0" type="line"/>
      <point x="705" y="870" type="line"/>
      <point x="258.0" y="877.0" type="line"/>
      <point x="260.0" y="527.0" type="line"/>
      <point x="274.0" y="115.0" type="line"/>
      <point x="437.0" y="80.0" type="line"/>
      <point x="437.0" y="0.0" type="line"/>
    </contour>
  </outline>
</glyph>
<glyph name="engtail" format="2">
  <advance width="629"/>
  <outline>
    <contour>
      <point x="417" y="190" type="line"/>
      <point x="453" y="190" type="line"/>
      <point x="453" y="-195" type="line" smooth="yes"/>
      <point x="453" y="-315"/>
      <point x="353" y="-443"/>
      <point x="269" y="-443" type="qcurve" smooth="yes"/>
      <point x="197" y="-443"/>
      <point x="54" y="-370"/>
      <point x="27" y="-329" type="qcurve"/>
      <point x="90" y="-254" type="line"/>
      <point x="142" y="-295"/>
      <point x="230" y="-325"/>
      <point x="281" y="-325" type="qcurve" smooth="yes"/>
      <point x="331" y="-325"/>
      <point x="417" y="-244"/>
      <point x="417" y="-165" type="qcurve" smooth="yes"/>
      <point x="417" y="-86"/>
      <point x="417" y="150"/>
      <point x="417" y="150" type="qcurve"/>
    </contour>
  </outline>
</glyph>
